<svg xmlns="http://www.w3.org/2000/svg" width="205" height="152" viewBox="0 0 205 152" fill="none">
<path d="M90.375 29V28H88.8908L89.4482 29.3756L90.375 29ZM102.062 29L102.99 28.6271L102.738 28H102.062V29ZM131.875 103.188L130.947 103.56L131.876 105.872L132.803 103.56L131.875 103.188ZM161.625 29V28H160.949L160.697 28.6278L161.625 29ZM173.375 29L174.301 29.3767L174.861 28H173.375V29ZM136.375 120V121H137.048L137.301 120.377L136.375 120ZM127.25 120L126.323 120.376L126.576 121H127.25V120ZM86.5625 29V28H85.5625V29H86.5625ZM96.875 29L97.8745 28.9696L97.8451 28H96.875V29ZM98.5625 84.5H99.5625V84.4848L99.562 84.4696L98.5625 84.5ZM98.5625 120V121H99.5625V120H98.5625ZM86.5625 120H85.5625V121H86.5625V120ZM166.812 29V28H165.842L165.813 28.9696L166.812 29ZM177.125 29H178.125V28H177.125V29ZM177.125 120V121H178.125V120H177.125ZM165.125 120H164.125V121H165.125V120ZM165.125 84.5L164.125 84.4696L164.125 84.4848V84.5H165.125ZM90.375 30H102.062V28H90.375V30ZM101.135 29.3729L130.947 103.56L132.803 102.815L102.99 28.6271L101.135 29.3729ZM132.803 103.56L162.553 29.3722L160.697 28.6278L130.947 102.815L132.803 103.56ZM161.625 30H173.375V28H161.625V30ZM172.449 28.6233L135.449 119.623L137.301 120.377L174.301 29.3767L172.449 28.6233ZM136.375 119H127.25V121H136.375V119ZM128.177 119.624L91.3018 28.6244L89.4482 29.3756L126.323 120.376L128.177 119.624ZM86.5625 30H96.875V28H86.5625V30ZM95.8755 29.0304L97.563 84.5304L99.562 84.4696L97.8745 28.9696L95.8755 29.0304ZM97.5625 84.5V120H99.5625V84.5H97.5625ZM98.5625 119H86.5625V121H98.5625V119ZM87.5625 120V29H85.5625V120H87.5625ZM166.812 30H177.125V28H166.812V30ZM176.125 29V120H178.125V29H176.125ZM177.125 119H165.125V121H177.125V119ZM166.125 120V84.5H164.125V120H166.125ZM166.125 84.5304L167.812 29.0304L165.813 28.9696L164.125 84.4696L166.125 84.5304Z" fill="#FAFAFA"/>
<path d="M87 68.125V77.9375H37.75V68.125H87ZM39.625 29V120H27.5625V29H39.625ZM97.5 29V120H85.5V29H97.5Z" fill="#FAFAFA"/>
<path d="M87 68.125H88V67.125H87V68.125ZM87 77.9375V78.9375H88V77.9375H87ZM37.75 77.9375H36.75V78.9375H37.75V77.9375ZM37.75 68.125V67.125H36.75V68.125H37.75ZM39.625 29H40.625V28H39.625V29ZM39.625 120V121H40.625V120H39.625ZM27.5625 120H26.5625V121H27.5625V120ZM27.5625 29V28H26.5625V29H27.5625ZM97.5 29H98.5V28H97.5V29ZM97.5 120V121H98.5V120H97.5ZM85.5 120H84.5V121H85.5V120ZM85.5 29V28H84.5V29H85.5ZM86 68.125V77.9375H88V68.125H86ZM87 76.9375H37.75V78.9375H87V76.9375ZM38.75 77.9375V68.125H36.75V77.9375H38.75ZM37.75 69.125H87V67.125H37.75V69.125ZM38.625 29V120H40.625V29H38.625ZM39.625 119H27.5625V121H39.625V119ZM28.5625 120V29H26.5625V120H28.5625ZM27.5625 30H39.625V28H27.5625V30ZM96.5 29V120H98.5V29H96.5ZM97.5 119H85.5V121H97.5V119ZM86.5 120V29H84.5V120H86.5ZM85.5 30H97.5V28H85.5V30Z" fill="#FAFAFA"/>
</svg>